# xmcd
#
# Track frame offsets:
#	150
#	17660
#	31865
#	47483
#	61913
#	71061
#	86955
#	101161
#	120195
#	135723
#	145706
#	159621
#	180499
#	190634
#	204819
#	221489
#
# Disc length: 3118 seconds
#
# Revision: 0
# Processed by: cddbd v1.5.2PL0 Copyright (c) Steve Scherf et al.
# Submitted via: EasyCDDAExtractor 10.0.2.1
#
DISCID=d40c2c10
DTITLE=Various Artist - Sumner and Assoc.
DYEAR=2003
DGENRE=Gospel
TTITLE0=Donnie Sumner - The Touch Of His Hand
TTITLE1=Tom Prewitt - Jonah
TTITLE2=Harlan Burton - On My Knees For You
TTITLE3=Marvin Morrow - My Homes A Sight To See
TTITLE4=Crimson - Empty Tomb
TTITLE5=Evelyn Conner - Carry Me Awhile
TTITLE6=Lewis Scott - God In Country
TTITLE7=Kenny Brazeal - He Is Risen
TTITLE8=Gladys Jones - God Comforted Me Through You
TTITLE9=Evel;yn Conners - When We All Sing Together
TTITLE10=Veronica Whaley - The Color Of Love
TTITLE11=Undivided Heart - Ready To Serve
TTITLE12=Crimson - Love Isn't Love
TTITLE13=Kenny Brazeal - I Believe In The Old Rugged Cross
TTITLE14=Sumner, Watters And Matthews - Prodigal
TTITLE15=Jim Watters - Forever In Her Eyes
EXTD=
EXTT0=
EXTT1=
EXTT2=
EXTT3=
EXTT4=
EXTT5=
EXTT6=
EXTT7=
EXTT8=
EXTT9=
EXTT10=
EXTT11=
EXTT12=
EXTT13=
EXTT14=
EXTT15=
PLAYORDER=
